G04 #@! TF.FileFunction,Copper,L2,Bot,Signal*
%FSLAX46Y46*%
G04 Gerber Fmt 4.6, Leading zero omitted, Abs format (unit mm)*
G04 Created by KiCad (PCBNEW (after 2015-mar-04 BZR unknown)-product) date 11/24/2015 7:31:04 AM*
%MOMM*%
G01*
G04 APERTURE LIST*
%ADD10C,0.152400*%
%ADD11C,5.080000*%
%ADD12C,2.159000*%
%ADD13C,2.286000*%
%ADD14C,3.175000*%
%ADD15C,1.651000*%
%ADD16C,1.803400*%
%ADD17C,1.600200*%
%ADD18C,1.778000*%
%ADD19C,1.524000*%
%ADD20C,1.016000*%
%ADD21C,0.381000*%
%ADD22C,0.254000*%
G04 APERTURE END LIST*
D10*
D11*
X66040000Y-29210000D03*
X29210000Y-29210000D03*
X80010000Y-115570000D03*
D12*
X42291000Y-50165000D03*
X42291000Y-59690000D03*
X42291000Y-34544000D03*
X42291000Y-44069000D03*
D13*
X50673000Y-80772000D03*
X50673000Y-85852000D03*
X50673000Y-90932000D03*
D14*
X77470000Y-57150000D03*
D15*
X72390000Y-52070000D03*
X72390000Y-49530000D03*
D14*
X77470000Y-46990000D03*
D13*
X29210000Y-69850000D03*
D14*
X77470000Y-76200000D03*
D15*
X72390000Y-71120000D03*
X72390000Y-68580000D03*
D14*
X77470000Y-66040000D03*
X77470000Y-38100000D03*
D15*
X72390000Y-33020000D03*
X72390000Y-30480000D03*
D14*
X77470000Y-27940000D03*
D16*
X74244200Y-101092000D03*
D17*
X78740000Y-101092000D03*
D13*
X29210000Y-74930000D03*
D18*
X47498000Y-36322000D03*
X55626000Y-36322000D03*
X55626000Y-43053000D03*
X47498000Y-43053000D03*
X55626000Y-46355000D03*
X47498000Y-46355000D03*
X55626000Y-49657000D03*
X47498000Y-49657000D03*
X47498000Y-33020000D03*
X55626000Y-33020000D03*
D15*
X69850000Y-112141000D03*
X74930000Y-112141000D03*
D19*
X49403000Y-68580000D03*
X51943000Y-68580000D03*
X54483000Y-68580000D03*
X57023000Y-68580000D03*
X59563000Y-68580000D03*
X62103000Y-68580000D03*
X64643000Y-68580000D03*
X67183000Y-68580000D03*
D11*
X29210000Y-115570000D03*
D20*
X64897000Y-89027000D03*
X75184000Y-89154000D03*
X33401000Y-110744000D03*
X43688000Y-102108000D03*
X33401000Y-102108000D03*
X67056000Y-77724000D03*
X59563000Y-82423000D03*
X62103000Y-82423000D03*
X59563000Y-74422000D03*
X62103000Y-74422000D03*
D21*
X59563000Y-68580000D02*
X59563000Y-74422000D01*
X62103000Y-68580000D02*
X62103000Y-74422000D01*
D22*
G36*
X83262000Y-118822000D02*
X82940958Y-118822000D01*
X82940958Y-115041491D01*
X82515600Y-113960093D01*
X82456212Y-113871213D01*
X82092979Y-113576824D01*
X82003176Y-113666627D01*
X82003176Y-113487021D01*
X81708787Y-113123788D01*
X80643351Y-112659897D01*
X80048326Y-112649216D01*
X80048326Y-100832944D01*
X79849600Y-100351989D01*
X79565863Y-100067757D01*
X79565863Y-75785008D01*
X79565863Y-65625008D01*
X79565863Y-56735008D01*
X79565863Y-46575008D01*
X79565863Y-37685008D01*
X79247514Y-36914545D01*
X78658555Y-36324558D01*
X77888649Y-36004865D01*
X77055008Y-36004137D01*
X76284545Y-36322486D01*
X75694558Y-36911445D01*
X75374865Y-37681351D01*
X75374137Y-38514992D01*
X75692486Y-39285455D01*
X76281445Y-39875442D01*
X77051351Y-40195135D01*
X77884992Y-40195863D01*
X78655455Y-39877514D01*
X79245442Y-39288555D01*
X79565135Y-38518649D01*
X79565863Y-37685008D01*
X79565863Y-46575008D01*
X79247514Y-45804545D01*
X78658555Y-45214558D01*
X77888649Y-44894865D01*
X77055008Y-44894137D01*
X76284545Y-45212486D01*
X75694558Y-45801445D01*
X75374865Y-46571351D01*
X75374137Y-47404992D01*
X75692486Y-48175455D01*
X76281445Y-48765442D01*
X77051351Y-49085135D01*
X77884992Y-49085863D01*
X78655455Y-48767514D01*
X79245442Y-48178555D01*
X79565135Y-47408649D01*
X79565863Y-46575008D01*
X79565863Y-56735008D01*
X79247514Y-55964545D01*
X78658555Y-55374558D01*
X77888649Y-55054865D01*
X77055008Y-55054137D01*
X76284545Y-55372486D01*
X75694558Y-55961445D01*
X75374865Y-56731351D01*
X75374137Y-57564992D01*
X75692486Y-58335455D01*
X76281445Y-58925442D01*
X77051351Y-59245135D01*
X77884992Y-59245863D01*
X78655455Y-58927514D01*
X79245442Y-58338555D01*
X79565135Y-57568649D01*
X79565863Y-56735008D01*
X79565863Y-65625008D01*
X79247514Y-64854545D01*
X78658555Y-64264558D01*
X77888649Y-63944865D01*
X77055008Y-63944137D01*
X76284545Y-64262486D01*
X75694558Y-64851445D01*
X75374865Y-65621351D01*
X75374137Y-66454992D01*
X75692486Y-67225455D01*
X76281445Y-67815442D01*
X77051351Y-68135135D01*
X77884992Y-68135863D01*
X78655455Y-67817514D01*
X79245442Y-67228555D01*
X79565135Y-66458649D01*
X79565863Y-65625008D01*
X79565863Y-75785008D01*
X79247514Y-75014545D01*
X78658555Y-74424558D01*
X77888649Y-74104865D01*
X77055008Y-74104137D01*
X76284545Y-74422486D01*
X75694558Y-75011445D01*
X75374865Y-75781351D01*
X75374137Y-76614992D01*
X75692486Y-77385455D01*
X76281445Y-77975442D01*
X77051351Y-78295135D01*
X77884992Y-78295863D01*
X78655455Y-77977514D01*
X79245442Y-77388555D01*
X79565135Y-76618649D01*
X79565863Y-75785008D01*
X79565863Y-100067757D01*
X79481946Y-99983694D01*
X79001339Y-99784128D01*
X78480944Y-99783674D01*
X77999989Y-99982400D01*
X77631694Y-100350054D01*
X77432128Y-100830661D01*
X77431674Y-101351056D01*
X77630400Y-101832011D01*
X77998054Y-102200306D01*
X78478661Y-102399872D01*
X78999056Y-102400326D01*
X79480011Y-102201600D01*
X79848306Y-101833946D01*
X80047872Y-101353339D01*
X80048326Y-100832944D01*
X80048326Y-112649216D01*
X79481491Y-112639042D01*
X78400093Y-113064400D01*
X78311213Y-113123788D01*
X78016824Y-113487021D01*
X80010000Y-115480197D01*
X82003176Y-113487021D01*
X82003176Y-113666627D01*
X80099803Y-115570000D01*
X82092979Y-117563176D01*
X82456212Y-117268787D01*
X82920103Y-116203351D01*
X82940958Y-115041491D01*
X82940958Y-118822000D01*
X82003176Y-118822000D01*
X82003176Y-117652979D01*
X80010000Y-115659803D01*
X79920197Y-115749606D01*
X79920197Y-115570000D01*
X77927021Y-113576824D01*
X77563788Y-113871213D01*
X77099897Y-114936649D01*
X77079042Y-116098509D01*
X77504400Y-117179907D01*
X77563788Y-117268787D01*
X77927021Y-117563176D01*
X79920197Y-115570000D01*
X79920197Y-115749606D01*
X78016824Y-117652979D01*
X78311213Y-118016212D01*
X79376649Y-118480103D01*
X80538509Y-118500958D01*
X81619907Y-118075600D01*
X81708787Y-118016212D01*
X82003176Y-117652979D01*
X82003176Y-118822000D01*
X76263731Y-118822000D01*
X76263731Y-111876914D01*
X76061146Y-111386620D01*
X75686353Y-111011173D01*
X75654145Y-110997799D01*
X75654145Y-100812823D01*
X75439983Y-100294512D01*
X75043774Y-99897611D01*
X74525837Y-99682545D01*
X73965023Y-99682055D01*
X73723731Y-99781754D01*
X73723731Y-70855914D01*
X73723731Y-51805914D01*
X73599377Y-51504953D01*
X73599377Y-49755042D01*
X73593439Y-49275104D01*
X73421199Y-48859280D01*
X73236130Y-48773672D01*
X73146328Y-48863474D01*
X73146328Y-48683870D01*
X73060720Y-48498801D01*
X72615042Y-48320623D01*
X72135104Y-48326561D01*
X71719280Y-48498801D01*
X71633672Y-48683870D01*
X72390000Y-49440197D01*
X73146328Y-48683870D01*
X73146328Y-48863474D01*
X72479803Y-49530000D01*
X73236130Y-50286328D01*
X73421199Y-50200720D01*
X73599377Y-49755042D01*
X73599377Y-51504953D01*
X73521146Y-51315620D01*
X73146353Y-50940173D01*
X72656413Y-50736732D01*
X72397036Y-50736505D01*
X72644896Y-50733439D01*
X73060720Y-50561199D01*
X73146328Y-50376130D01*
X72390000Y-49619803D01*
X72300197Y-49709605D01*
X72300197Y-49530000D01*
X71543870Y-48773672D01*
X71358801Y-48859280D01*
X71180623Y-49304958D01*
X71186561Y-49784896D01*
X71358801Y-50200720D01*
X71543870Y-50286328D01*
X72300197Y-49530000D01*
X72300197Y-49709605D01*
X71633672Y-50376130D01*
X71719280Y-50561199D01*
X72157252Y-50736296D01*
X72125914Y-50736269D01*
X71635620Y-50938854D01*
X71260173Y-51313647D01*
X71056732Y-51803587D01*
X71056269Y-52334086D01*
X71258854Y-52824380D01*
X71633647Y-53199827D01*
X72123587Y-53403268D01*
X72654086Y-53403731D01*
X73144380Y-53201146D01*
X73519827Y-52826353D01*
X73723268Y-52336413D01*
X73723731Y-51805914D01*
X73723731Y-70855914D01*
X73599377Y-70554953D01*
X73599377Y-68805042D01*
X73593439Y-68325104D01*
X73421199Y-67909280D01*
X73236130Y-67823672D01*
X73146328Y-67913474D01*
X73146328Y-67733870D01*
X73060720Y-67548801D01*
X72615042Y-67370623D01*
X72135104Y-67376561D01*
X71719280Y-67548801D01*
X71633672Y-67733870D01*
X72390000Y-68490197D01*
X73146328Y-67733870D01*
X73146328Y-67913474D01*
X72479803Y-68580000D01*
X73236130Y-69336328D01*
X73421199Y-69250720D01*
X73599377Y-68805042D01*
X73599377Y-70554953D01*
X73521146Y-70365620D01*
X73146353Y-69990173D01*
X72656413Y-69786732D01*
X72397036Y-69786505D01*
X72644896Y-69783439D01*
X73060720Y-69611199D01*
X73146328Y-69426130D01*
X72390000Y-68669803D01*
X72300197Y-68759605D01*
X72300197Y-68580000D01*
X71543870Y-67823672D01*
X71358801Y-67909280D01*
X71180623Y-68354958D01*
X71186561Y-68834896D01*
X71358801Y-69250720D01*
X71543870Y-69336328D01*
X72300197Y-68580000D01*
X72300197Y-68759605D01*
X71633672Y-69426130D01*
X71719280Y-69611199D01*
X72157252Y-69786296D01*
X72125914Y-69786269D01*
X71635620Y-69988854D01*
X71260173Y-70363647D01*
X71056732Y-70853587D01*
X71056269Y-71384086D01*
X71258854Y-71874380D01*
X71633647Y-72249827D01*
X72123587Y-72453268D01*
X72654086Y-72453731D01*
X73144380Y-72251146D01*
X73519827Y-71876353D01*
X73723268Y-71386413D01*
X73723731Y-70855914D01*
X73723731Y-99781754D01*
X73446712Y-99896217D01*
X73049811Y-100292426D01*
X72834745Y-100810363D01*
X72834255Y-101371177D01*
X73048417Y-101889488D01*
X73444626Y-102286389D01*
X73962563Y-102501455D01*
X74523377Y-102501945D01*
X75041688Y-102287783D01*
X75438589Y-101891574D01*
X75653655Y-101373637D01*
X75654145Y-100812823D01*
X75654145Y-110997799D01*
X75196413Y-110807732D01*
X74665914Y-110807269D01*
X74175620Y-111009854D01*
X73800173Y-111384647D01*
X73596732Y-111874587D01*
X73596269Y-112405086D01*
X73798854Y-112895380D01*
X74173647Y-113270827D01*
X74663587Y-113474268D01*
X75194086Y-113474731D01*
X75684380Y-113272146D01*
X76059827Y-112897353D01*
X76263268Y-112407413D01*
X76263731Y-111876914D01*
X76263731Y-118822000D01*
X71183731Y-118822000D01*
X71183731Y-111876914D01*
X70981146Y-111386620D01*
X70606353Y-111011173D01*
X70116413Y-110807732D01*
X69585914Y-110807269D01*
X69095620Y-111009854D01*
X68720173Y-111384647D01*
X68516732Y-111874587D01*
X68516269Y-112405086D01*
X68718854Y-112895380D01*
X69093647Y-113270827D01*
X69583587Y-113474268D01*
X70114086Y-113474731D01*
X70604380Y-113272146D01*
X70979827Y-112897353D01*
X71183268Y-112407413D01*
X71183731Y-111876914D01*
X71183731Y-118822000D01*
X68453220Y-118822000D01*
X68453220Y-68328490D01*
X68260282Y-67861542D01*
X67903337Y-67503974D01*
X67436727Y-67310221D01*
X66931490Y-67309780D01*
X66464542Y-67502718D01*
X66106974Y-67859663D01*
X65913221Y-68326273D01*
X65912780Y-68831510D01*
X66105718Y-69298458D01*
X66462663Y-69656026D01*
X66929273Y-69849779D01*
X67434510Y-69850220D01*
X67901458Y-69657282D01*
X68259026Y-69300337D01*
X68452779Y-68833727D01*
X68453220Y-68328490D01*
X68453220Y-118822000D01*
X65789334Y-118822000D01*
X65789334Y-68789907D01*
X65782403Y-68335246D01*
X65621747Y-67947389D01*
X65443273Y-67869530D01*
X65353470Y-67959333D01*
X65353470Y-67779727D01*
X65275611Y-67601253D01*
X64852907Y-67433666D01*
X64398246Y-67440597D01*
X64010389Y-67601253D01*
X63932530Y-67779727D01*
X64643000Y-68490197D01*
X65353470Y-67779727D01*
X65353470Y-67959333D01*
X64732803Y-68580000D01*
X65443273Y-69290470D01*
X65621747Y-69212611D01*
X65789334Y-68789907D01*
X65789334Y-118822000D01*
X65353470Y-118822000D01*
X65353470Y-69380273D01*
X64643000Y-68669803D01*
X64553197Y-68759606D01*
X64553197Y-68580000D01*
X63842727Y-67869530D01*
X63664253Y-67947389D01*
X63496666Y-68370093D01*
X63503597Y-68824754D01*
X63664253Y-69212611D01*
X63842727Y-69290470D01*
X64553197Y-68580000D01*
X64553197Y-68759606D01*
X63932530Y-69380273D01*
X64010389Y-69558747D01*
X64433093Y-69726334D01*
X64887754Y-69719403D01*
X65275611Y-69558747D01*
X65353470Y-69380273D01*
X65353470Y-118822000D01*
X63373220Y-118822000D01*
X63373220Y-68328490D01*
X63180282Y-67861542D01*
X62823337Y-67503974D01*
X62356727Y-67310221D01*
X61851490Y-67309780D01*
X61384542Y-67502718D01*
X61026974Y-67859663D01*
X60833221Y-68326273D01*
X60833219Y-68328487D01*
X60640282Y-67861542D01*
X60283337Y-67503974D01*
X59816727Y-67310221D01*
X59311490Y-67309780D01*
X58844542Y-67502718D01*
X58486974Y-67859663D01*
X58293221Y-68326273D01*
X58292780Y-68831510D01*
X58485718Y-69298458D01*
X58842663Y-69656026D01*
X58864500Y-69665093D01*
X58864500Y-73683693D01*
X58702179Y-73845731D01*
X58547176Y-74219018D01*
X58546824Y-74623208D01*
X58701175Y-74996766D01*
X58986731Y-75282821D01*
X59360018Y-75437824D01*
X59764208Y-75438176D01*
X60137766Y-75283825D01*
X60423821Y-74998269D01*
X60578824Y-74624982D01*
X60579176Y-74220792D01*
X60424825Y-73847234D01*
X60261500Y-73683623D01*
X60261500Y-69665528D01*
X60281458Y-69657282D01*
X60639026Y-69300337D01*
X60832779Y-68833727D01*
X60832780Y-68831512D01*
X61025718Y-69298458D01*
X61382663Y-69656026D01*
X61404500Y-69665093D01*
X61404500Y-73683693D01*
X61242179Y-73845731D01*
X61087176Y-74219018D01*
X61086824Y-74623208D01*
X61241175Y-74996766D01*
X61526731Y-75282821D01*
X61900018Y-75437824D01*
X62304208Y-75438176D01*
X62677766Y-75283825D01*
X62963821Y-74998269D01*
X63118824Y-74624982D01*
X63119176Y-74220792D01*
X62964825Y-73847234D01*
X62801500Y-73683623D01*
X62801500Y-69665528D01*
X62821458Y-69657282D01*
X63179026Y-69300337D01*
X63372779Y-68833727D01*
X63373220Y-68328490D01*
X63373220Y-118822000D01*
X58169334Y-118822000D01*
X58169334Y-68789907D01*
X58162403Y-68335246D01*
X58001747Y-67947389D01*
X57823273Y-67869530D01*
X57733470Y-67959333D01*
X57733470Y-67779727D01*
X57655611Y-67601253D01*
X57232907Y-67433666D01*
X56778246Y-67440597D01*
X56390389Y-67601253D01*
X56312530Y-67779727D01*
X57023000Y-68490197D01*
X57733470Y-67779727D01*
X57733470Y-67959333D01*
X57112803Y-68580000D01*
X57823273Y-69290470D01*
X58001747Y-69212611D01*
X58169334Y-68789907D01*
X58169334Y-118822000D01*
X57733470Y-118822000D01*
X57733470Y-69380273D01*
X57023000Y-68669803D01*
X56933197Y-68759606D01*
X56933197Y-68580000D01*
X56222727Y-67869530D01*
X56044253Y-67947389D01*
X55876666Y-68370093D01*
X55883597Y-68824754D01*
X56044253Y-69212611D01*
X56222727Y-69290470D01*
X56933197Y-68580000D01*
X56933197Y-68759606D01*
X56312530Y-69380273D01*
X56390389Y-69558747D01*
X56813093Y-69726334D01*
X57267754Y-69719403D01*
X57655611Y-69558747D01*
X57733470Y-69380273D01*
X57733470Y-118822000D01*
X55753220Y-118822000D01*
X55753220Y-68328490D01*
X55560282Y-67861542D01*
X55203337Y-67503974D01*
X54736727Y-67310221D01*
X54231490Y-67309780D01*
X53764542Y-67502718D01*
X53406974Y-67859663D01*
X53213221Y-68326273D01*
X53212780Y-68831510D01*
X53405718Y-69298458D01*
X53762663Y-69656026D01*
X54229273Y-69849779D01*
X54734510Y-69850220D01*
X55201458Y-69657282D01*
X55559026Y-69300337D01*
X55752779Y-68833727D01*
X55753220Y-68328490D01*
X55753220Y-118822000D01*
X53089334Y-118822000D01*
X53089334Y-68789907D01*
X53082403Y-68335246D01*
X52921747Y-67947389D01*
X52743273Y-67869530D01*
X52653470Y-67959333D01*
X52653470Y-67779727D01*
X52575611Y-67601253D01*
X52152907Y-67433666D01*
X51698246Y-67440597D01*
X51310389Y-67601253D01*
X51232530Y-67779727D01*
X51943000Y-68490197D01*
X52653470Y-67779727D01*
X52653470Y-67959333D01*
X52032803Y-68580000D01*
X52743273Y-69290470D01*
X52921747Y-69212611D01*
X53089334Y-68789907D01*
X53089334Y-118822000D01*
X52653470Y-118822000D01*
X52653470Y-69380273D01*
X51943000Y-68669803D01*
X51853197Y-68759606D01*
X51853197Y-68580000D01*
X51142727Y-67869530D01*
X50964253Y-67947389D01*
X50796666Y-68370093D01*
X50803597Y-68824754D01*
X50964253Y-69212611D01*
X51142727Y-69290470D01*
X51853197Y-68580000D01*
X51853197Y-68759606D01*
X51232530Y-69380273D01*
X51310389Y-69558747D01*
X51733093Y-69726334D01*
X52187754Y-69719403D01*
X52575611Y-69558747D01*
X52653470Y-69380273D01*
X52653470Y-118822000D01*
X52324286Y-118822000D01*
X52324286Y-90605037D01*
X52324286Y-80445037D01*
X52073466Y-79838005D01*
X51609437Y-79373166D01*
X51002845Y-79121287D01*
X50673220Y-79120999D01*
X50673220Y-68328490D01*
X50480282Y-67861542D01*
X50123337Y-67503974D01*
X49656727Y-67310221D01*
X49151490Y-67309780D01*
X48684542Y-67502718D01*
X48326974Y-67859663D01*
X48133221Y-68326273D01*
X48132780Y-68831510D01*
X48325718Y-69298458D01*
X48682663Y-69656026D01*
X49149273Y-69849779D01*
X49654510Y-69850220D01*
X50121458Y-69657282D01*
X50479026Y-69300337D01*
X50672779Y-68833727D01*
X50673220Y-68328490D01*
X50673220Y-79120999D01*
X50346037Y-79120714D01*
X49739005Y-79371534D01*
X49274166Y-79835563D01*
X49022287Y-80442155D01*
X49021714Y-81098963D01*
X49272534Y-81705995D01*
X49736563Y-82170834D01*
X50343155Y-82422713D01*
X50999963Y-82423286D01*
X51606995Y-82172466D01*
X52071834Y-81708437D01*
X52323713Y-81101845D01*
X52324286Y-80445037D01*
X52324286Y-90605037D01*
X52197486Y-90298156D01*
X52197486Y-86152692D01*
X52196512Y-85546408D01*
X51966371Y-84990801D01*
X51748314Y-84866488D01*
X51658512Y-84956290D01*
X51658512Y-84776686D01*
X51534199Y-84558629D01*
X50973692Y-84327514D01*
X50367408Y-84328488D01*
X49811801Y-84558629D01*
X49687488Y-84776686D01*
X50673000Y-85762197D01*
X51658512Y-84776686D01*
X51658512Y-84956290D01*
X50762803Y-85852000D01*
X51748314Y-86837512D01*
X51966371Y-86713199D01*
X52197486Y-86152692D01*
X52197486Y-90298156D01*
X52073466Y-89998005D01*
X51658512Y-89582326D01*
X51658512Y-86927314D01*
X50673000Y-85941803D01*
X50583197Y-86031605D01*
X50583197Y-85852000D01*
X49597686Y-84866488D01*
X49379629Y-84990801D01*
X49148514Y-85551308D01*
X49149488Y-86157592D01*
X49379629Y-86713199D01*
X49597686Y-86837512D01*
X50583197Y-85852000D01*
X50583197Y-86031605D01*
X49687488Y-86927314D01*
X49811801Y-87145371D01*
X50372308Y-87376486D01*
X50978592Y-87375512D01*
X51534199Y-87145371D01*
X51658512Y-86927314D01*
X51658512Y-89582326D01*
X51609437Y-89533166D01*
X51002845Y-89281287D01*
X50346037Y-89280714D01*
X49739005Y-89531534D01*
X49274166Y-89995563D01*
X49022287Y-90602155D01*
X49021714Y-91258963D01*
X49272534Y-91865995D01*
X49736563Y-92330834D01*
X50343155Y-92582713D01*
X50999963Y-92583286D01*
X51606995Y-92332466D01*
X52071834Y-91868437D01*
X52323713Y-91261845D01*
X52324286Y-90605037D01*
X52324286Y-118822000D01*
X43878775Y-118822000D01*
X43878775Y-59375612D01*
X43637602Y-58791928D01*
X43191421Y-58344968D01*
X42608159Y-58102776D01*
X41976612Y-58102225D01*
X41392928Y-58343398D01*
X40945968Y-58789579D01*
X40703776Y-59372841D01*
X40703225Y-60004388D01*
X40944398Y-60588072D01*
X41390579Y-61035032D01*
X41973841Y-61277224D01*
X42605388Y-61277775D01*
X43189072Y-61036602D01*
X43636032Y-60590421D01*
X43878224Y-60007159D01*
X43878775Y-59375612D01*
X43878775Y-118822000D01*
X32140958Y-118822000D01*
X32140958Y-115041491D01*
X31715600Y-113960093D01*
X31656212Y-113871213D01*
X31292979Y-113576824D01*
X31203176Y-113666627D01*
X31203176Y-113487021D01*
X30908787Y-113123788D01*
X29843351Y-112659897D01*
X28681491Y-112639042D01*
X27600093Y-113064400D01*
X27511213Y-113123788D01*
X27216824Y-113487021D01*
X29210000Y-115480197D01*
X31203176Y-113487021D01*
X31203176Y-113666627D01*
X29299803Y-115570000D01*
X31292979Y-117563176D01*
X31656212Y-117268787D01*
X32120103Y-116203351D01*
X32140958Y-115041491D01*
X32140958Y-118822000D01*
X31203176Y-118822000D01*
X31203176Y-117652979D01*
X29210000Y-115659803D01*
X29120197Y-115749606D01*
X29120197Y-115570000D01*
X27127021Y-113576824D01*
X26763788Y-113871213D01*
X26299897Y-114936649D01*
X26279042Y-116098509D01*
X26704400Y-117179907D01*
X26763788Y-117268787D01*
X27127021Y-117563176D01*
X29120197Y-115570000D01*
X29120197Y-115749606D01*
X27216824Y-117652979D01*
X27511213Y-118016212D01*
X28576649Y-118480103D01*
X29738509Y-118500958D01*
X30819907Y-118075600D01*
X30908787Y-118016212D01*
X31203176Y-117652979D01*
X31203176Y-118822000D01*
X25958000Y-118822000D01*
X25958000Y-75057000D01*
X27686201Y-75057000D01*
X27686488Y-75235592D01*
X27916629Y-75791199D01*
X28134686Y-75915512D01*
X28993197Y-75057000D01*
X29172802Y-75057000D01*
X28224488Y-76005314D01*
X28348801Y-76223371D01*
X28909308Y-76454486D01*
X29515592Y-76453512D01*
X30071199Y-76223371D01*
X30195512Y-76005314D01*
X29247197Y-75057000D01*
X29426802Y-75057000D01*
X30285314Y-75915512D01*
X30503371Y-75791199D01*
X30734486Y-75230692D01*
X30734206Y-75057000D01*
X33072605Y-75057000D01*
X39497000Y-68632605D01*
X39497000Y-58472605D01*
X43105605Y-54864000D01*
X56694605Y-54864000D01*
X61722000Y-49836605D01*
X61722000Y-43740605D01*
X64695605Y-40767000D01*
X71172605Y-40767000D01*
X77597000Y-34342605D01*
X77597000Y-31697395D01*
X74982605Y-29083000D01*
X73997805Y-29083000D01*
X72695172Y-30085025D01*
X73146328Y-29633870D01*
X73060720Y-29448801D01*
X72615042Y-29270623D01*
X72135104Y-29276561D01*
X71719280Y-29448801D01*
X71633672Y-29633870D01*
X72084827Y-30085025D01*
X70782195Y-29083000D01*
X68963751Y-29083000D01*
X68970958Y-28681491D01*
X68545600Y-27600093D01*
X68486212Y-27511213D01*
X68122979Y-27216824D01*
X66256803Y-29083000D01*
X66077197Y-29083000D01*
X68033176Y-27127021D01*
X67738787Y-26763788D01*
X66673351Y-26299897D01*
X65511491Y-26279042D01*
X64430093Y-26704400D01*
X64341213Y-26763788D01*
X64046824Y-27127021D01*
X66002803Y-29083000D01*
X65823197Y-29083000D01*
X63957021Y-27216824D01*
X63593788Y-27511213D01*
X63129897Y-28576649D01*
X63120808Y-29083000D01*
X46937395Y-29083000D01*
X42832763Y-33187631D01*
X42576565Y-33082525D01*
X41995545Y-33084492D01*
X41467890Y-33303054D01*
X41351314Y-33514512D01*
X41928598Y-34091796D01*
X41838796Y-34181598D01*
X41261512Y-33604314D01*
X41050054Y-33720890D01*
X40829525Y-34258435D01*
X40831492Y-34839455D01*
X40933842Y-35086552D01*
X36449000Y-39571395D01*
X36449000Y-45412626D01*
X32140958Y-49632748D01*
X32140958Y-28681491D01*
X31715600Y-27600093D01*
X31656212Y-27511213D01*
X31292979Y-27216824D01*
X31203176Y-27306627D01*
X31203176Y-27127021D01*
X30908787Y-26763788D01*
X29843351Y-26299897D01*
X28681491Y-26279042D01*
X27600093Y-26704400D01*
X27511213Y-26763788D01*
X27216824Y-27127021D01*
X29210000Y-29120197D01*
X31203176Y-27127021D01*
X31203176Y-27306627D01*
X29299803Y-29210000D01*
X31292979Y-31203176D01*
X31656212Y-30908787D01*
X32120103Y-29843351D01*
X32140958Y-28681491D01*
X32140958Y-49632748D01*
X31203176Y-50551392D01*
X31203176Y-31292979D01*
X29210000Y-29299803D01*
X29120197Y-29389606D01*
X29120197Y-29210000D01*
X27127021Y-27216824D01*
X26763788Y-27511213D01*
X26299897Y-28576649D01*
X26279042Y-29738509D01*
X26704400Y-30819907D01*
X26763788Y-30908787D01*
X27127021Y-31203176D01*
X29120197Y-29210000D01*
X29120197Y-29389606D01*
X27216824Y-31292979D01*
X27511213Y-31656212D01*
X28576649Y-32120103D01*
X29738509Y-32140958D01*
X30819907Y-31715600D01*
X30908787Y-31656212D01*
X31203176Y-31292979D01*
X31203176Y-50551392D01*
X30226000Y-51508626D01*
X30226000Y-60907395D01*
X26617395Y-64516000D01*
X25958000Y-64516000D01*
X25958000Y-25958000D01*
X76779438Y-25958000D01*
X76284545Y-26162486D01*
X75694558Y-26751445D01*
X75374865Y-27521351D01*
X75374137Y-28354992D01*
X75692486Y-29125455D01*
X76281445Y-29715442D01*
X77051351Y-30035135D01*
X77884992Y-30035863D01*
X78655455Y-29717514D01*
X79245442Y-29128555D01*
X79565135Y-28358649D01*
X79565863Y-27525008D01*
X79247514Y-26754545D01*
X78658555Y-26164558D01*
X78161108Y-25958000D01*
X83262000Y-25958000D01*
X83262000Y-118822000D01*
X83262000Y-118822000D01*
G37*
X83262000Y-118822000D02*
X82940958Y-118822000D01*
X82940958Y-115041491D01*
X82515600Y-113960093D01*
X82456212Y-113871213D01*
X82092979Y-113576824D01*
X82003176Y-113666627D01*
X82003176Y-113487021D01*
X81708787Y-113123788D01*
X80643351Y-112659897D01*
X80048326Y-112649216D01*
X80048326Y-100832944D01*
X79849600Y-100351989D01*
X79565863Y-100067757D01*
X79565863Y-75785008D01*
X79565863Y-65625008D01*
X79565863Y-56735008D01*
X79565863Y-46575008D01*
X79565863Y-37685008D01*
X79247514Y-36914545D01*
X78658555Y-36324558D01*
X77888649Y-36004865D01*
X77055008Y-36004137D01*
X76284545Y-36322486D01*
X75694558Y-36911445D01*
X75374865Y-37681351D01*
X75374137Y-38514992D01*
X75692486Y-39285455D01*
X76281445Y-39875442D01*
X77051351Y-40195135D01*
X77884992Y-40195863D01*
X78655455Y-39877514D01*
X79245442Y-39288555D01*
X79565135Y-38518649D01*
X79565863Y-37685008D01*
X79565863Y-46575008D01*
X79247514Y-45804545D01*
X78658555Y-45214558D01*
X77888649Y-44894865D01*
X77055008Y-44894137D01*
X76284545Y-45212486D01*
X75694558Y-45801445D01*
X75374865Y-46571351D01*
X75374137Y-47404992D01*
X75692486Y-48175455D01*
X76281445Y-48765442D01*
X77051351Y-49085135D01*
X77884992Y-49085863D01*
X78655455Y-48767514D01*
X79245442Y-48178555D01*
X79565135Y-47408649D01*
X79565863Y-46575008D01*
X79565863Y-56735008D01*
X79247514Y-55964545D01*
X78658555Y-55374558D01*
X77888649Y-55054865D01*
X77055008Y-55054137D01*
X76284545Y-55372486D01*
X75694558Y-55961445D01*
X75374865Y-56731351D01*
X75374137Y-57564992D01*
X75692486Y-58335455D01*
X76281445Y-58925442D01*
X77051351Y-59245135D01*
X77884992Y-59245863D01*
X78655455Y-58927514D01*
X79245442Y-58338555D01*
X79565135Y-57568649D01*
X79565863Y-56735008D01*
X79565863Y-65625008D01*
X79247514Y-64854545D01*
X78658555Y-64264558D01*
X77888649Y-63944865D01*
X77055008Y-63944137D01*
X76284545Y-64262486D01*
X75694558Y-64851445D01*
X75374865Y-65621351D01*
X75374137Y-66454992D01*
X75692486Y-67225455D01*
X76281445Y-67815442D01*
X77051351Y-68135135D01*
X77884992Y-68135863D01*
X78655455Y-67817514D01*
X79245442Y-67228555D01*
X79565135Y-66458649D01*
X79565863Y-65625008D01*
X79565863Y-75785008D01*
X79247514Y-75014545D01*
X78658555Y-74424558D01*
X77888649Y-74104865D01*
X77055008Y-74104137D01*
X76284545Y-74422486D01*
X75694558Y-75011445D01*
X75374865Y-75781351D01*
X75374137Y-76614992D01*
X75692486Y-77385455D01*
X76281445Y-77975442D01*
X77051351Y-78295135D01*
X77884992Y-78295863D01*
X78655455Y-77977514D01*
X79245442Y-77388555D01*
X79565135Y-76618649D01*
X79565863Y-75785008D01*
X79565863Y-100067757D01*
X79481946Y-99983694D01*
X79001339Y-99784128D01*
X78480944Y-99783674D01*
X77999989Y-99982400D01*
X77631694Y-100350054D01*
X77432128Y-100830661D01*
X77431674Y-101351056D01*
X77630400Y-101832011D01*
X77998054Y-102200306D01*
X78478661Y-102399872D01*
X78999056Y-102400326D01*
X79480011Y-102201600D01*
X79848306Y-101833946D01*
X80047872Y-101353339D01*
X80048326Y-100832944D01*
X80048326Y-112649216D01*
X79481491Y-112639042D01*
X78400093Y-113064400D01*
X78311213Y-113123788D01*
X78016824Y-113487021D01*
X80010000Y-115480197D01*
X82003176Y-113487021D01*
X82003176Y-113666627D01*
X80099803Y-115570000D01*
X82092979Y-117563176D01*
X82456212Y-117268787D01*
X82920103Y-116203351D01*
X82940958Y-115041491D01*
X82940958Y-118822000D01*
X82003176Y-118822000D01*
X82003176Y-117652979D01*
X80010000Y-115659803D01*
X79920197Y-115749606D01*
X79920197Y-115570000D01*
X77927021Y-113576824D01*
X77563788Y-113871213D01*
X77099897Y-114936649D01*
X77079042Y-116098509D01*
X77504400Y-117179907D01*
X77563788Y-117268787D01*
X77927021Y-117563176D01*
X79920197Y-115570000D01*
X79920197Y-115749606D01*
X78016824Y-117652979D01*
X78311213Y-118016212D01*
X79376649Y-118480103D01*
X80538509Y-118500958D01*
X81619907Y-118075600D01*
X81708787Y-118016212D01*
X82003176Y-117652979D01*
X82003176Y-118822000D01*
X76263731Y-118822000D01*
X76263731Y-111876914D01*
X76061146Y-111386620D01*
X75686353Y-111011173D01*
X75654145Y-110997799D01*
X75654145Y-100812823D01*
X75439983Y-100294512D01*
X75043774Y-99897611D01*
X74525837Y-99682545D01*
X73965023Y-99682055D01*
X73723731Y-99781754D01*
X73723731Y-70855914D01*
X73723731Y-51805914D01*
X73599377Y-51504953D01*
X73599377Y-49755042D01*
X73593439Y-49275104D01*
X73421199Y-48859280D01*
X73236130Y-48773672D01*
X73146328Y-48863474D01*
X73146328Y-48683870D01*
X73060720Y-48498801D01*
X72615042Y-48320623D01*
X72135104Y-48326561D01*
X71719280Y-48498801D01*
X71633672Y-48683870D01*
X72390000Y-49440197D01*
X73146328Y-48683870D01*
X73146328Y-48863474D01*
X72479803Y-49530000D01*
X73236130Y-50286328D01*
X73421199Y-50200720D01*
X73599377Y-49755042D01*
X73599377Y-51504953D01*
X73521146Y-51315620D01*
X73146353Y-50940173D01*
X72656413Y-50736732D01*
X72397036Y-50736505D01*
X72644896Y-50733439D01*
X73060720Y-50561199D01*
X73146328Y-50376130D01*
X72390000Y-49619803D01*
X72300197Y-49709605D01*
X72300197Y-49530000D01*
X71543870Y-48773672D01*
X71358801Y-48859280D01*
X71180623Y-49304958D01*
X71186561Y-49784896D01*
X71358801Y-50200720D01*
X71543870Y-50286328D01*
X72300197Y-49530000D01*
X72300197Y-49709605D01*
X71633672Y-50376130D01*
X71719280Y-50561199D01*
X72157252Y-50736296D01*
X72125914Y-50736269D01*
X71635620Y-50938854D01*
X71260173Y-51313647D01*
X71056732Y-51803587D01*
X71056269Y-52334086D01*
X71258854Y-52824380D01*
X71633647Y-53199827D01*
X72123587Y-53403268D01*
X72654086Y-53403731D01*
X73144380Y-53201146D01*
X73519827Y-52826353D01*
X73723268Y-52336413D01*
X73723731Y-51805914D01*
X73723731Y-70855914D01*
X73599377Y-70554953D01*
X73599377Y-68805042D01*
X73593439Y-68325104D01*
X73421199Y-67909280D01*
X73236130Y-67823672D01*
X73146328Y-67913474D01*
X73146328Y-67733870D01*
X73060720Y-67548801D01*
X72615042Y-67370623D01*
X72135104Y-67376561D01*
X71719280Y-67548801D01*
X71633672Y-67733870D01*
X72390000Y-68490197D01*
X73146328Y-67733870D01*
X73146328Y-67913474D01*
X72479803Y-68580000D01*
X73236130Y-69336328D01*
X73421199Y-69250720D01*
X73599377Y-68805042D01*
X73599377Y-70554953D01*
X73521146Y-70365620D01*
X73146353Y-69990173D01*
X72656413Y-69786732D01*
X72397036Y-69786505D01*
X72644896Y-69783439D01*
X73060720Y-69611199D01*
X73146328Y-69426130D01*
X72390000Y-68669803D01*
X72300197Y-68759605D01*
X72300197Y-68580000D01*
X71543870Y-67823672D01*
X71358801Y-67909280D01*
X71180623Y-68354958D01*
X71186561Y-68834896D01*
X71358801Y-69250720D01*
X71543870Y-69336328D01*
X72300197Y-68580000D01*
X72300197Y-68759605D01*
X71633672Y-69426130D01*
X71719280Y-69611199D01*
X72157252Y-69786296D01*
X72125914Y-69786269D01*
X71635620Y-69988854D01*
X71260173Y-70363647D01*
X71056732Y-70853587D01*
X71056269Y-71384086D01*
X71258854Y-71874380D01*
X71633647Y-72249827D01*
X72123587Y-72453268D01*
X72654086Y-72453731D01*
X73144380Y-72251146D01*
X73519827Y-71876353D01*
X73723268Y-71386413D01*
X73723731Y-70855914D01*
X73723731Y-99781754D01*
X73446712Y-99896217D01*
X73049811Y-100292426D01*
X72834745Y-100810363D01*
X72834255Y-101371177D01*
X73048417Y-101889488D01*
X73444626Y-102286389D01*
X73962563Y-102501455D01*
X74523377Y-102501945D01*
X75041688Y-102287783D01*
X75438589Y-101891574D01*
X75653655Y-101373637D01*
X75654145Y-100812823D01*
X75654145Y-110997799D01*
X75196413Y-110807732D01*
X74665914Y-110807269D01*
X74175620Y-111009854D01*
X73800173Y-111384647D01*
X73596732Y-111874587D01*
X73596269Y-112405086D01*
X73798854Y-112895380D01*
X74173647Y-113270827D01*
X74663587Y-113474268D01*
X75194086Y-113474731D01*
X75684380Y-113272146D01*
X76059827Y-112897353D01*
X76263268Y-112407413D01*
X76263731Y-111876914D01*
X76263731Y-118822000D01*
X71183731Y-118822000D01*
X71183731Y-111876914D01*
X70981146Y-111386620D01*
X70606353Y-111011173D01*
X70116413Y-110807732D01*
X69585914Y-110807269D01*
X69095620Y-111009854D01*
X68720173Y-111384647D01*
X68516732Y-111874587D01*
X68516269Y-112405086D01*
X68718854Y-112895380D01*
X69093647Y-113270827D01*
X69583587Y-113474268D01*
X70114086Y-113474731D01*
X70604380Y-113272146D01*
X70979827Y-112897353D01*
X71183268Y-112407413D01*
X71183731Y-111876914D01*
X71183731Y-118822000D01*
X68453220Y-118822000D01*
X68453220Y-68328490D01*
X68260282Y-67861542D01*
X67903337Y-67503974D01*
X67436727Y-67310221D01*
X66931490Y-67309780D01*
X66464542Y-67502718D01*
X66106974Y-67859663D01*
X65913221Y-68326273D01*
X65912780Y-68831510D01*
X66105718Y-69298458D01*
X66462663Y-69656026D01*
X66929273Y-69849779D01*
X67434510Y-69850220D01*
X67901458Y-69657282D01*
X68259026Y-69300337D01*
X68452779Y-68833727D01*
X68453220Y-68328490D01*
X68453220Y-118822000D01*
X65789334Y-118822000D01*
X65789334Y-68789907D01*
X65782403Y-68335246D01*
X65621747Y-67947389D01*
X65443273Y-67869530D01*
X65353470Y-67959333D01*
X65353470Y-67779727D01*
X65275611Y-67601253D01*
X64852907Y-67433666D01*
X64398246Y-67440597D01*
X64010389Y-67601253D01*
X63932530Y-67779727D01*
X64643000Y-68490197D01*
X65353470Y-67779727D01*
X65353470Y-67959333D01*
X64732803Y-68580000D01*
X65443273Y-69290470D01*
X65621747Y-69212611D01*
X65789334Y-68789907D01*
X65789334Y-118822000D01*
X65353470Y-118822000D01*
X65353470Y-69380273D01*
X64643000Y-68669803D01*
X64553197Y-68759606D01*
X64553197Y-68580000D01*
X63842727Y-67869530D01*
X63664253Y-67947389D01*
X63496666Y-68370093D01*
X63503597Y-68824754D01*
X63664253Y-69212611D01*
X63842727Y-69290470D01*
X64553197Y-68580000D01*
X64553197Y-68759606D01*
X63932530Y-69380273D01*
X64010389Y-69558747D01*
X64433093Y-69726334D01*
X64887754Y-69719403D01*
X65275611Y-69558747D01*
X65353470Y-69380273D01*
X65353470Y-118822000D01*
X63373220Y-118822000D01*
X63373220Y-68328490D01*
X63180282Y-67861542D01*
X62823337Y-67503974D01*
X62356727Y-67310221D01*
X61851490Y-67309780D01*
X61384542Y-67502718D01*
X61026974Y-67859663D01*
X60833221Y-68326273D01*
X60833219Y-68328487D01*
X60640282Y-67861542D01*
X60283337Y-67503974D01*
X59816727Y-67310221D01*
X59311490Y-67309780D01*
X58844542Y-67502718D01*
X58486974Y-67859663D01*
X58293221Y-68326273D01*
X58292780Y-68831510D01*
X58485718Y-69298458D01*
X58842663Y-69656026D01*
X58864500Y-69665093D01*
X58864500Y-73683693D01*
X58702179Y-73845731D01*
X58547176Y-74219018D01*
X58546824Y-74623208D01*
X58701175Y-74996766D01*
X58986731Y-75282821D01*
X59360018Y-75437824D01*
X59764208Y-75438176D01*
X60137766Y-75283825D01*
X60423821Y-74998269D01*
X60578824Y-74624982D01*
X60579176Y-74220792D01*
X60424825Y-73847234D01*
X60261500Y-73683623D01*
X60261500Y-69665528D01*
X60281458Y-69657282D01*
X60639026Y-69300337D01*
X60832779Y-68833727D01*
X60832780Y-68831512D01*
X61025718Y-69298458D01*
X61382663Y-69656026D01*
X61404500Y-69665093D01*
X61404500Y-73683693D01*
X61242179Y-73845731D01*
X61087176Y-74219018D01*
X61086824Y-74623208D01*
X61241175Y-74996766D01*
X61526731Y-75282821D01*
X61900018Y-75437824D01*
X62304208Y-75438176D01*
X62677766Y-75283825D01*
X62963821Y-74998269D01*
X63118824Y-74624982D01*
X63119176Y-74220792D01*
X62964825Y-73847234D01*
X62801500Y-73683623D01*
X62801500Y-69665528D01*
X62821458Y-69657282D01*
X63179026Y-69300337D01*
X63372779Y-68833727D01*
X63373220Y-68328490D01*
X63373220Y-118822000D01*
X58169334Y-118822000D01*
X58169334Y-68789907D01*
X58162403Y-68335246D01*
X58001747Y-67947389D01*
X57823273Y-67869530D01*
X57733470Y-67959333D01*
X57733470Y-67779727D01*
X57655611Y-67601253D01*
X57232907Y-67433666D01*
X56778246Y-67440597D01*
X56390389Y-67601253D01*
X56312530Y-67779727D01*
X57023000Y-68490197D01*
X57733470Y-67779727D01*
X57733470Y-67959333D01*
X57112803Y-68580000D01*
X57823273Y-69290470D01*
X58001747Y-69212611D01*
X58169334Y-68789907D01*
X58169334Y-118822000D01*
X57733470Y-118822000D01*
X57733470Y-69380273D01*
X57023000Y-68669803D01*
X56933197Y-68759606D01*
X56933197Y-68580000D01*
X56222727Y-67869530D01*
X56044253Y-67947389D01*
X55876666Y-68370093D01*
X55883597Y-68824754D01*
X56044253Y-69212611D01*
X56222727Y-69290470D01*
X56933197Y-68580000D01*
X56933197Y-68759606D01*
X56312530Y-69380273D01*
X56390389Y-69558747D01*
X56813093Y-69726334D01*
X57267754Y-69719403D01*
X57655611Y-69558747D01*
X57733470Y-69380273D01*
X57733470Y-118822000D01*
X55753220Y-118822000D01*
X55753220Y-68328490D01*
X55560282Y-67861542D01*
X55203337Y-67503974D01*
X54736727Y-67310221D01*
X54231490Y-67309780D01*
X53764542Y-67502718D01*
X53406974Y-67859663D01*
X53213221Y-68326273D01*
X53212780Y-68831510D01*
X53405718Y-69298458D01*
X53762663Y-69656026D01*
X54229273Y-69849779D01*
X54734510Y-69850220D01*
X55201458Y-69657282D01*
X55559026Y-69300337D01*
X55752779Y-68833727D01*
X55753220Y-68328490D01*
X55753220Y-118822000D01*
X53089334Y-118822000D01*
X53089334Y-68789907D01*
X53082403Y-68335246D01*
X52921747Y-67947389D01*
X52743273Y-67869530D01*
X52653470Y-67959333D01*
X52653470Y-67779727D01*
X52575611Y-67601253D01*
X52152907Y-67433666D01*
X51698246Y-67440597D01*
X51310389Y-67601253D01*
X51232530Y-67779727D01*
X51943000Y-68490197D01*
X52653470Y-67779727D01*
X52653470Y-67959333D01*
X52032803Y-68580000D01*
X52743273Y-69290470D01*
X52921747Y-69212611D01*
X53089334Y-68789907D01*
X53089334Y-118822000D01*
X52653470Y-118822000D01*
X52653470Y-69380273D01*
X51943000Y-68669803D01*
X51853197Y-68759606D01*
X51853197Y-68580000D01*
X51142727Y-67869530D01*
X50964253Y-67947389D01*
X50796666Y-68370093D01*
X50803597Y-68824754D01*
X50964253Y-69212611D01*
X51142727Y-69290470D01*
X51853197Y-68580000D01*
X51853197Y-68759606D01*
X51232530Y-69380273D01*
X51310389Y-69558747D01*
X51733093Y-69726334D01*
X52187754Y-69719403D01*
X52575611Y-69558747D01*
X52653470Y-69380273D01*
X52653470Y-118822000D01*
X52324286Y-118822000D01*
X52324286Y-90605037D01*
X52324286Y-80445037D01*
X52073466Y-79838005D01*
X51609437Y-79373166D01*
X51002845Y-79121287D01*
X50673220Y-79120999D01*
X50673220Y-68328490D01*
X50480282Y-67861542D01*
X50123337Y-67503974D01*
X49656727Y-67310221D01*
X49151490Y-67309780D01*
X48684542Y-67502718D01*
X48326974Y-67859663D01*
X48133221Y-68326273D01*
X48132780Y-68831510D01*
X48325718Y-69298458D01*
X48682663Y-69656026D01*
X49149273Y-69849779D01*
X49654510Y-69850220D01*
X50121458Y-69657282D01*
X50479026Y-69300337D01*
X50672779Y-68833727D01*
X50673220Y-68328490D01*
X50673220Y-79120999D01*
X50346037Y-79120714D01*
X49739005Y-79371534D01*
X49274166Y-79835563D01*
X49022287Y-80442155D01*
X49021714Y-81098963D01*
X49272534Y-81705995D01*
X49736563Y-82170834D01*
X50343155Y-82422713D01*
X50999963Y-82423286D01*
X51606995Y-82172466D01*
X52071834Y-81708437D01*
X52323713Y-81101845D01*
X52324286Y-80445037D01*
X52324286Y-90605037D01*
X52197486Y-90298156D01*
X52197486Y-86152692D01*
X52196512Y-85546408D01*
X51966371Y-84990801D01*
X51748314Y-84866488D01*
X51658512Y-84956290D01*
X51658512Y-84776686D01*
X51534199Y-84558629D01*
X50973692Y-84327514D01*
X50367408Y-84328488D01*
X49811801Y-84558629D01*
X49687488Y-84776686D01*
X50673000Y-85762197D01*
X51658512Y-84776686D01*
X51658512Y-84956290D01*
X50762803Y-85852000D01*
X51748314Y-86837512D01*
X51966371Y-86713199D01*
X52197486Y-86152692D01*
X52197486Y-90298156D01*
X52073466Y-89998005D01*
X51658512Y-89582326D01*
X51658512Y-86927314D01*
X50673000Y-85941803D01*
X50583197Y-86031605D01*
X50583197Y-85852000D01*
X49597686Y-84866488D01*
X49379629Y-84990801D01*
X49148514Y-85551308D01*
X49149488Y-86157592D01*
X49379629Y-86713199D01*
X49597686Y-86837512D01*
X50583197Y-85852000D01*
X50583197Y-86031605D01*
X49687488Y-86927314D01*
X49811801Y-87145371D01*
X50372308Y-87376486D01*
X50978592Y-87375512D01*
X51534199Y-87145371D01*
X51658512Y-86927314D01*
X51658512Y-89582326D01*
X51609437Y-89533166D01*
X51002845Y-89281287D01*
X50346037Y-89280714D01*
X49739005Y-89531534D01*
X49274166Y-89995563D01*
X49022287Y-90602155D01*
X49021714Y-91258963D01*
X49272534Y-91865995D01*
X49736563Y-92330834D01*
X50343155Y-92582713D01*
X50999963Y-92583286D01*
X51606995Y-92332466D01*
X52071834Y-91868437D01*
X52323713Y-91261845D01*
X52324286Y-90605037D01*
X52324286Y-118822000D01*
X43878775Y-118822000D01*
X43878775Y-59375612D01*
X43637602Y-58791928D01*
X43191421Y-58344968D01*
X42608159Y-58102776D01*
X41976612Y-58102225D01*
X41392928Y-58343398D01*
X40945968Y-58789579D01*
X40703776Y-59372841D01*
X40703225Y-60004388D01*
X40944398Y-60588072D01*
X41390579Y-61035032D01*
X41973841Y-61277224D01*
X42605388Y-61277775D01*
X43189072Y-61036602D01*
X43636032Y-60590421D01*
X43878224Y-60007159D01*
X43878775Y-59375612D01*
X43878775Y-118822000D01*
X32140958Y-118822000D01*
X32140958Y-115041491D01*
X31715600Y-113960093D01*
X31656212Y-113871213D01*
X31292979Y-113576824D01*
X31203176Y-113666627D01*
X31203176Y-113487021D01*
X30908787Y-113123788D01*
X29843351Y-112659897D01*
X28681491Y-112639042D01*
X27600093Y-113064400D01*
X27511213Y-113123788D01*
X27216824Y-113487021D01*
X29210000Y-115480197D01*
X31203176Y-113487021D01*
X31203176Y-113666627D01*
X29299803Y-115570000D01*
X31292979Y-117563176D01*
X31656212Y-117268787D01*
X32120103Y-116203351D01*
X32140958Y-115041491D01*
X32140958Y-118822000D01*
X31203176Y-118822000D01*
X31203176Y-117652979D01*
X29210000Y-115659803D01*
X29120197Y-115749606D01*
X29120197Y-115570000D01*
X27127021Y-113576824D01*
X26763788Y-113871213D01*
X26299897Y-114936649D01*
X26279042Y-116098509D01*
X26704400Y-117179907D01*
X26763788Y-117268787D01*
X27127021Y-117563176D01*
X29120197Y-115570000D01*
X29120197Y-115749606D01*
X27216824Y-117652979D01*
X27511213Y-118016212D01*
X28576649Y-118480103D01*
X29738509Y-118500958D01*
X30819907Y-118075600D01*
X30908787Y-118016212D01*
X31203176Y-117652979D01*
X31203176Y-118822000D01*
X25958000Y-118822000D01*
X25958000Y-75057000D01*
X27686201Y-75057000D01*
X27686488Y-75235592D01*
X27916629Y-75791199D01*
X28134686Y-75915512D01*
X28993197Y-75057000D01*
X29172802Y-75057000D01*
X28224488Y-76005314D01*
X28348801Y-76223371D01*
X28909308Y-76454486D01*
X29515592Y-76453512D01*
X30071199Y-76223371D01*
X30195512Y-76005314D01*
X29247197Y-75057000D01*
X29426802Y-75057000D01*
X30285314Y-75915512D01*
X30503371Y-75791199D01*
X30734486Y-75230692D01*
X30734206Y-75057000D01*
X33072605Y-75057000D01*
X39497000Y-68632605D01*
X39497000Y-58472605D01*
X43105605Y-54864000D01*
X56694605Y-54864000D01*
X61722000Y-49836605D01*
X61722000Y-43740605D01*
X64695605Y-40767000D01*
X71172605Y-40767000D01*
X77597000Y-34342605D01*
X77597000Y-31697395D01*
X74982605Y-29083000D01*
X73997805Y-29083000D01*
X72695172Y-30085025D01*
X73146328Y-29633870D01*
X73060720Y-29448801D01*
X72615042Y-29270623D01*
X72135104Y-29276561D01*
X71719280Y-29448801D01*
X71633672Y-29633870D01*
X72084827Y-30085025D01*
X70782195Y-29083000D01*
X68963751Y-29083000D01*
X68970958Y-28681491D01*
X68545600Y-27600093D01*
X68486212Y-27511213D01*
X68122979Y-27216824D01*
X66256803Y-29083000D01*
X66077197Y-29083000D01*
X68033176Y-27127021D01*
X67738787Y-26763788D01*
X66673351Y-26299897D01*
X65511491Y-26279042D01*
X64430093Y-26704400D01*
X64341213Y-26763788D01*
X64046824Y-27127021D01*
X66002803Y-29083000D01*
X65823197Y-29083000D01*
X63957021Y-27216824D01*
X63593788Y-27511213D01*
X63129897Y-28576649D01*
X63120808Y-29083000D01*
X46937395Y-29083000D01*
X42832763Y-33187631D01*
X42576565Y-33082525D01*
X41995545Y-33084492D01*
X41467890Y-33303054D01*
X41351314Y-33514512D01*
X41928598Y-34091796D01*
X41838796Y-34181598D01*
X41261512Y-33604314D01*
X41050054Y-33720890D01*
X40829525Y-34258435D01*
X40831492Y-34839455D01*
X40933842Y-35086552D01*
X36449000Y-39571395D01*
X36449000Y-45412626D01*
X32140958Y-49632748D01*
X32140958Y-28681491D01*
X31715600Y-27600093D01*
X31656212Y-27511213D01*
X31292979Y-27216824D01*
X31203176Y-27306627D01*
X31203176Y-27127021D01*
X30908787Y-26763788D01*
X29843351Y-26299897D01*
X28681491Y-26279042D01*
X27600093Y-26704400D01*
X27511213Y-26763788D01*
X27216824Y-27127021D01*
X29210000Y-29120197D01*
X31203176Y-27127021D01*
X31203176Y-27306627D01*
X29299803Y-29210000D01*
X31292979Y-31203176D01*
X31656212Y-30908787D01*
X32120103Y-29843351D01*
X32140958Y-28681491D01*
X32140958Y-49632748D01*
X31203176Y-50551392D01*
X31203176Y-31292979D01*
X29210000Y-29299803D01*
X29120197Y-29389606D01*
X29120197Y-29210000D01*
X27127021Y-27216824D01*
X26763788Y-27511213D01*
X26299897Y-28576649D01*
X26279042Y-29738509D01*
X26704400Y-30819907D01*
X26763788Y-30908787D01*
X27127021Y-31203176D01*
X29120197Y-29210000D01*
X29120197Y-29389606D01*
X27216824Y-31292979D01*
X27511213Y-31656212D01*
X28576649Y-32120103D01*
X29738509Y-32140958D01*
X30819907Y-31715600D01*
X30908787Y-31656212D01*
X31203176Y-31292979D01*
X31203176Y-50551392D01*
X30226000Y-51508626D01*
X30226000Y-60907395D01*
X26617395Y-64516000D01*
X25958000Y-64516000D01*
X25958000Y-25958000D01*
X76779438Y-25958000D01*
X76284545Y-26162486D01*
X75694558Y-26751445D01*
X75374865Y-27521351D01*
X75374137Y-28354992D01*
X75692486Y-29125455D01*
X76281445Y-29715442D01*
X77051351Y-30035135D01*
X77884992Y-30035863D01*
X78655455Y-29717514D01*
X79245442Y-29128555D01*
X79565135Y-28358649D01*
X79565863Y-27525008D01*
X79247514Y-26754545D01*
X78658555Y-26164558D01*
X78161108Y-25958000D01*
X83262000Y-25958000D01*
X83262000Y-118822000D01*
M02*
