M48
;DRILL file {kicad (after 2015-mar-04 BZR unknown)-product} date 11/24/2015 7:31:00 AM
;FORMAT={-:-/ absolute / inch / decimal}
FMAT,2
INCH,TZ
T1C0.020
T2C0.030
T3C0.035
T4C0.036
T5C0.043
T6C0.050
T7C0.063
T8C0.071
T9C0.080
T10C0.120
%
G90
G05
M72
T1
X1.315Y-4.02
X1.315Y-4.36
X1.72Y-4.02
X2.345Y-2.93
X2.345Y-3.245
X2.445Y-2.93
X2.445Y-3.245
X2.555Y-3.505
X2.64Y-3.06
X2.96Y-3.51
T2
X1.945Y-2.7
X2.045Y-2.7
X2.145Y-2.7
X2.245Y-2.7
X2.345Y-2.7
X2.445Y-2.7
X2.545Y-2.7
X2.645Y-2.7
T3
X2.75Y-4.415
X2.85Y-1.2
X2.85Y-1.3
X2.85Y-1.95
X2.85Y-2.05
X2.85Y-2.7
X2.85Y-2.8
X2.95Y-4.415
T4
X1.87Y-1.3
X1.87Y-1.43
X1.87Y-1.695
X1.87Y-1.825
X1.87Y-1.955
X2.19Y-1.3
X2.19Y-1.43
X2.19Y-1.695
X2.19Y-1.825
X2.19Y-1.955
T5
X1.665Y-1.36
X1.665Y-1.735
X1.665Y-1.975
X1.665Y-2.35
T6
X1.15Y-2.75
X1.15Y-2.95
X1.995Y-3.18
X1.995Y-3.38
X1.995Y-3.58
T7
X3.1Y-3.98
T8
X2.923Y-3.98
T9
X3.05Y-1.1
X3.05Y-1.5
X3.05Y-1.85
X3.05Y-2.25
X3.05Y-2.6
X3.05Y-3.
T10
X1.15Y-1.15
X1.15Y-4.55
X2.6Y-1.15
X3.15Y-4.55
T0
M30
