G04 #@! TF.FileFunction,Soldermask,Bot*
%FSLAX46Y46*%
G04 Gerber Fmt 4.6, Leading zero omitted, Abs format (unit mm)*
G04 Created by KiCad (PCBNEW (after 2015-mar-04 BZR unknown)-product) date 11/24/2015 7:31:04 AM*
%MOMM*%
G01*
G04 APERTURE LIST*
%ADD10C,0.152400*%
%ADD11C,5.080000*%
%ADD12C,2.159000*%
%ADD13C,2.286000*%
%ADD14C,3.175000*%
%ADD15C,1.651000*%
%ADD16C,1.803400*%
%ADD17C,1.600200*%
%ADD18C,1.778000*%
%ADD19C,1.524000*%
G04 APERTURE END LIST*
D10*
D11*
X66040000Y-29210000D03*
X29210000Y-29210000D03*
X80010000Y-115570000D03*
D12*
X42291000Y-50165000D03*
X42291000Y-59690000D03*
X42291000Y-34544000D03*
X42291000Y-44069000D03*
D13*
X50673000Y-80772000D03*
X50673000Y-85852000D03*
X50673000Y-90932000D03*
D14*
X77470000Y-57150000D03*
D15*
X72390000Y-52070000D03*
X72390000Y-49530000D03*
D14*
X77470000Y-46990000D03*
D13*
X29210000Y-69850000D03*
D14*
X77470000Y-76200000D03*
D15*
X72390000Y-71120000D03*
X72390000Y-68580000D03*
D14*
X77470000Y-66040000D03*
X77470000Y-38100000D03*
D15*
X72390000Y-33020000D03*
X72390000Y-30480000D03*
D14*
X77470000Y-27940000D03*
D16*
X74244200Y-101092000D03*
D17*
X78740000Y-101092000D03*
D13*
X29210000Y-74930000D03*
D18*
X47498000Y-36322000D03*
X55626000Y-36322000D03*
X55626000Y-43053000D03*
X47498000Y-43053000D03*
X55626000Y-46355000D03*
X47498000Y-46355000D03*
X55626000Y-49657000D03*
X47498000Y-49657000D03*
X47498000Y-33020000D03*
X55626000Y-33020000D03*
D15*
X69850000Y-112141000D03*
X74930000Y-112141000D03*
D19*
X49403000Y-68580000D03*
X51943000Y-68580000D03*
X54483000Y-68580000D03*
X57023000Y-68580000D03*
X59563000Y-68580000D03*
X62103000Y-68580000D03*
X64643000Y-68580000D03*
X67183000Y-68580000D03*
D11*
X29210000Y-115570000D03*
M02*
